<?xml version="1.0" encoding="UTF-8"?><svg id="Layer_1" xmlns="http://www.w3.org/2000/svg" width="354.08" height="432" viewBox="0 0 354.08 432"><path d="M154,429h3v2.76h-9.39v-2.76h3.52v-9.57h-3.05l-.47-2.76h6.38v12.33Zm16.82-1.72c0,2.69-2.14,4.72-4.98,4.72s-4.96-2.03-4.96-4.72c0-1.55,.72-2.85,1.98-3.6-.94-.67-1.49-1.77-1.49-3.01,0-2.42,1.92-4.24,4.46-4.24s4.48,1.82,4.48,4.24c0,1.24-.55,2.32-1.51,3.03,1.26,.73,2.01,2.05,2.01,3.58Zm-2.76-.02c0-1.22-.95-2.15-2.21-2.15s-2.19,.94-2.19,2.15,.96,2.13,2.19,2.13,2.21-.93,2.21-2.13Zm-.48-6.59c0-.93-.75-1.63-1.74-1.63s-1.72,.7-1.72,1.63,.72,1.67,1.72,1.67,1.74-.72,1.74-1.67Zm7.86-1.24h5.34l-5.01,12.33h3.27l4.91-12.72v-2.37h-8.98l.47,2.76Zm23.45,2.36v4.84c0,3.06-2.3,5.37-5.35,5.37s-5.37-2.31-5.37-5.37v-4.84c0-3.11,2.26-5.37,5.37-5.37s5.35,2.26,5.35,5.37Zm-7.84,4.77c0,1.56,1,2.6,2.49,2.6s2.47-1.05,2.47-2.6v-4.71c0-1.58-.97-2.6-2.47-2.6s-2.49,1.02-2.49,2.6v4.71Zm-4.81-149.33c-6.58-1.24-11.76-6.42-13-13-1.24,6.58-6.42,11.76-13,13,6.58,1.24,11.76,6.42,13,13,1.24-6.58,6.42-11.76,13-13ZM.86,399.36H3.84v-15.1H.86v15.1Zm19.46,0h2.97v-15.1h-2.97v9.94l-6.91-9.94h-3.54v.2l1.05,1.67v13.23h2.97v-9.03l6.43,9.03Zm17.56-14.67c-.91-.4-2.07-.71-3.23-.71-3.85,0-5.18,2.27-5.18,4.33,0,1.7,.59,2.95,2.58,4.05l2.27,1.42c.74,.45,1.13,.99,1.13,1.56,0,.82-.68,1.5-1.98,1.5-1.44,0-2.89-.65-3.68-1.3v3.31c.93,.4,2.29,.79,3.79,.79,3.46,0,5.04-2.12,5.04-4.47,0-1.67-.71-3.03-2.72-4.13l-2.29-1.36c-.62-.4-.93-.82-.93-1.42,0-.79,.62-1.47,1.84-1.47s2.61,.54,3.37,1.1v-3.2Zm9.09,14.67h2.97v-12.23h3.71l.47-2.86h-10.86v2.86h3.71v12.23Zm12.29,0h2.97v-15.1h-2.97v15.1Zm32.91-15.1v9.71c0,1.61-1.05,2.78-2.75,2.78s-2.75-1.16-2.75-2.78v-9.71h-2.97v9.49c0,3.68,2.21,5.89,5.72,5.89s5.72-2.21,5.72-5.89v-9.49h-2.97Zm32.96,15.1l.47-2.86h-6.05v-3.64h4.28v-2.86h-4.28v-2.87h6.05l-.47-2.86h-8.55v15.1h8.55Zm22.08-15.38c-4.45,0-7.82,3.37-7.82,7.84s3.37,7.82,7.82,7.82,7.84-3.37,7.84-7.82-3.4-7.84-7.84-7.84Zm0,12.66c-2.69,0-4.76-2.12-4.76-4.81s2.07-4.84,4.76-4.84,4.76,2.12,4.76,4.84-2.04,4.81-4.76,4.81Zm22.36-3.78v-2.86h-5.13v-2.87h5.58l.47-2.86h-9.02v15.1h2.97v-6.5h5.13Zm56.37,2.57c-.79,.71-2.07,1.22-3.54,1.22-2.72,0-4.73-2.12-4.73-4.81s2.04-4.84,4.73-4.84c1.47,0,2.72,.48,3.54,1.25v-3.43c-.99-.54-2.24-.82-3.51-.82-4.45,0-7.82,3.37-7.82,7.84s3.37,7.82,7.82,7.82c1.27,0,2.52-.31,3.51-.82v-3.4Zm16.31,3.94h2.97v-15.1h-2.97v6.06h-7.17v-6.06h-2.97v15.1h2.97v-6.17h7.17v6.17Zm8.85-15.1l1.17,1.87v13.23h2.97v-9.03l6.43,9.03h2.97v-15.1h-2.97v9.94l-6.91-9.94h-3.66Zm26.42-.28c-4.45,0-7.82,3.37-7.82,7.84s3.37,7.82,7.82,7.82,7.84-3.37,7.84-7.82-3.4-7.84-7.84-7.84Zm0,12.66c-2.69,0-4.76-2.12-4.76-4.81s2.07-4.84,4.76-4.84,4.76,2.12,4.76,4.84-2.04,4.81-4.76,4.81Zm21.45,2.72l.47-2.86h-6.05v-12.23h-2.97v15.1h8.55Zm12.09-15.38c-4.45,0-7.82,3.37-7.82,7.84s3.37,7.82,7.82,7.82,7.85-3.37,7.85-7.82-3.4-7.84-7.85-7.84Zm0,12.66c-2.69,0-4.76-2.12-4.76-4.81s2.07-4.84,4.76-4.84,4.76,2.12,4.76,4.84-2.04,4.81-4.76,4.81Zm34.75,2.72h2.97v-5.18l5.29-9.91h-3.34l-3.45,6.94-3.43-6.94h-3.37l5.32,9.88v5.21Zm-8.69-1.45v-6.47h-5.7v2.73h2.64v2.03c-.45,.26-1.15,.4-2.1,.4s-1.86-.19-2.63-.56c-.77-.37-1.37-.91-1.8-1.61-.43-.7-.64-1.52-.64-2.46,0-1.64,.44-2.87,1.32-3.7,.88-.83,2.15-1.25,3.82-1.25,.47,0,1.06,.09,1.76,.28,.7,.19,1.25,.39,1.65,.61l.98-2.81c-.62-.33-1.34-.6-2.16-.81-.82-.21-1.69-.31-2.62-.31-1.44,0-2.76,.31-3.95,.93-1.19,.62-2.14,1.55-2.85,2.79-.71,1.24-1.06,2.76-1.06,4.54,0,1.43,.33,2.7,1,3.82,.67,1.12,1.61,1.99,2.84,2.62,1.23,.63,2.65,.95,4.27,.95,.6,0,1.26-.09,1.99-.26,.73-.17,1.39-.4,2-.67,.6-.27,1.02-.53,1.26-.78Zm-265.55,1.45h2.97v-12.23h3.71l.47-2.86h-10.86v2.86h3.71v12.23Zm32.71,0h2.97v-12.23h3.71l.47-2.86h-10.86v2.86h3.71v12.23Zm83.7,0h2.97v-12.23h3.71l.47-2.86h-10.86v2.86h3.71v12.23Zm21.35,0l.47-2.86h-6.05v-3.64h4.28v-2.86h-4.28v-2.87h6.05l-.47-2.86h-8.55v15.1h8.55Z" fill="#7e8082"/><path d="M43.15,307.54h49.41l-1.67,10.22h-18.54v49.19h-10.65v-49.19h-18.54v-10.22Zm-18.22,27.2l-8.96-5.6c-3.16-1.96-4.63-3.93-4.63-6.19,0-3.83,3.17-6.22,8.28-6.22,4.23,0,9.13,1.69,12.49,4.31l.67,.52v-11.79l-.23-.12c-2.79-1.4-7.27-3.06-12.76-3.06-14.6,0-19.8,8.63-19.8,16.7,0,6.88,2.92,11.53,9.76,15.52l9.13,5.6c3.62,2.22,5.23,4.32,5.23,6.8,0,3.99-3.39,6.56-8.63,6.56-5.73,0-11.09-2.69-13.95-4.99l-.68-.55v12.16l.23,.11c2.6,1.27,7.99,3.4,14.83,3.4,9.73,0,19.54-5.32,19.54-17.21,0-6.76-3.15-11.53-10.53-15.95Zm112.66-16.98l-1.67-10.22h-33.05v59.41h33.89l1.67-10.22h-24.9v-16.43h17.16v-10.22h-17.16v-12.31h24.07Zm107.4,0l-1.67-10.22h-33.05v59.41h33.89l1.67-10.22h-24.9v-16.43h17.16v-10.22h-17.16v-12.31h24.07Zm-71.74,36.05l-13.54-46.27h-11.84l19.58,59.41h11.52l19.58-59.41h-11.84l-13.46,46.27Zm170.3-19.07l-8.96-5.6c-3.16-1.96-4.63-3.93-4.63-6.19,0-3.83,3.17-6.22,8.28-6.22,4.23,0,9.13,1.69,12.49,4.31l.67,.52v-11.79l-.23-.12c-2.79-1.4-7.27-3.06-12.76-3.06-14.6,0-19.8,8.63-19.8,16.7,0,6.88,2.92,11.53,9.76,15.52l9.13,5.6c3.62,2.22,5.23,4.31,5.23,6.8,0,3.99-3.39,6.56-8.63,6.56-5.73,0-11.09-2.69-13.95-4.99l-.68-.55v12.16l.23,.11c2.6,1.27,7.99,3.4,14.83,3.4,9.73,0,19.54-5.32,19.54-17.21,0-6.76-3.15-11.53-10.53-15.95Zm-49.03-27.2v39.23l-22.91-39.23h-14.06l4.8,7.52v51.9h10.65v-37.04l21.71,37.04h10.45v-59.41h-10.65Zm-202.95-33.4v-98.01l81.7-37.74v103.04l81.68,27.21v5.49l-81.68-27.21-81.7,27.21Zm27.4-77.42c0-4.36-2.08-9.92-5.88-13.01-3.62,3.3-5.88,10.62-5.88,16.83v46.88l11.76-4.01v-46.69Zm19.33-8.4c0-4.36-2.08-9.92-5.88-13.01-3.62,3.3-5.88,10.62-5.88,16.83v48.7l11.76-4.01v-48.51Zm19.33-8.39c0-4.36-2.08-9.92-5.88-13.01-3.62,3.3-5.88,10.62-5.88,16.83v50.5l11.76-4.01v-50.32ZM173.26,0l-21.51,70.25,12.87-7.14L173.26,0Zm21.5,166.92c-3.8,3.09-5.88,8.65-5.88,13.01v50.32l11.76,4.01v-50.5c0-6.21-2.26-13.53-5.88-16.83Zm19.33,8.39c-3.8,3.09-5.88,8.65-5.88,13.01v48.51l11.76,4.01v-48.7c0-6.21-2.26-13.53-5.88-16.83Zm19.33,8.4c-3.8,3.09-5.88,8.65-5.88,13.01v46.69l11.76,4.01v-46.88c0-6.21-2.26-13.53-5.88-16.83Zm-68.81-99.39v5.49h17.29l12.86,6.79v-5.49l-12.86-6.79h-17.29Zm8.64,54.08l81.68,37.73v-5.49l-81.68-37.73v5.49Zm21.5-68.16l-12.86-7.14h-17.29v5.49h17.29l8.29,4.6v6.88l4.57-2.27v-7.56Zm-21.5,62.67l-81.7,37.74,31.35-37.89v-11.5l9.5-14.61,9.5,5.58v26.7l12.65-23.54-11.91-6.99,9.11-11.79,12.86-6.79,8.65,43.1Zm-34.98-15.02l-11.73,5.58v18.23l11.73-5.22v-18.59Zm66.33,21.03v-26.7l9.5-5.58-12.25,2.93-9.89,5.81,12.65,23.54Zm15.36,2.78v-18.23l-11.73-5.58v18.59l11.73,5.22Zm-63.64-53.01l8.29-4.38v-15.72l-8.29,4.6v15.51Z" fill="#b30838"/></svg>